<svg width="24" height="24" viewBox="0 0 24 24" fill="none" xmlns="http://www.w3.org/2000/svg">
<g clip-path="url(#clip0_21_15)">
<path d="M10.8 17.775C11.175 17.775 11.5125 18.075 11.5125 18.4875C11.5125 18.8625 11.2125 19.2 10.8 19.2C10.425 19.2 10.0875 18.9 10.0875 18.4875C10.0875 18.075 10.425 17.775 10.8 17.775ZM21.825 13.425C21.45 13.425 21.1125 13.125 21.1125 12.7125C21.1125 12.3375 21.4125 12 21.825 12C22.2 12 22.5375 12.3 22.5375 12.7125C22.5375 13.0875 22.2 13.425 21.825 13.425ZM21.825 10.5375C20.625 10.5375 19.65 11.5125 19.65 12.7125C19.65 12.9375 19.6875 13.1625 19.7625 13.3875L12.6 17.2125C12.1875 16.6125 11.5125 16.275 10.8 16.275C9.97499 16.275 9.22499 16.7625 8.84999 17.475L2.39999 14.1C1.72499 13.725 1.19999 12.6375 1.27499 11.5875C1.31249 11.0625 1.49999 10.65 1.76249 10.5C1.94999 10.3875 2.13749 10.425 2.39999 10.5375L2.43749 10.575C4.16249 11.475 9.74999 14.4 9.97499 14.5125C10.35 14.6625 10.5375 14.7375 11.175 14.4375L22.725 8.4375C22.9125 8.3625 23.1 8.2125 23.1 7.95C23.1 7.6125 22.7625 7.4625 22.7625 7.4625C22.0875 7.1625 21.075 6.675 20.1 6.225C18 5.25 15.6 4.125 14.55 3.5625C13.65 3.075 12.9 3.4875 12.7875 3.5625L12.525 3.675C7.76249 6.075 1.46249 9.1875 1.08749 9.4125C0.449992 9.7875 0.0374915 10.575 -8.51392e-06 11.55C-0.0750085 13.0875 0.712491 14.7 1.83749 15.2625L8.66249 18.7875C8.81249 19.8375 9.74999 20.6625 10.8 20.6625C12 20.6625 12.9375 19.725 12.975 18.525L20.475 14.475C20.85 14.775 21.3375 14.925 21.825 14.925C23.025 14.925 24 13.95 24 12.75C24 11.5125 23.025 10.5375 21.825 10.5375Z" fill="white"/>
</g>
<defs>
<clipPath id="clip0_21_15">
<rect width="24" height="24" fill="white"/>
</clipPath>
</defs>
</svg>
